<svg id="Layer_1" data-name="Layer 1" xmlns="http://www.w3.org/2000/svg" viewBox="0 0 3725.45 1171.65"><defs><style>.cls-1,.cls-2,.cls-5{fill:#0054a5;}.cls-1,.cls-2,.cls-3{fill-rule:evenodd;}.cls-1{opacity:0.09;}.cls-3{fill:#f6921e;}.cls-4{fill:#494949;}</style></defs><title>logo-hksoft-hkstore</title><polygon class="cls-1" points="1884.59 440.48 1634.31 440.48 1375.73 734.61 1428.14 439.98 1186.36 439.98 1142.44 686.92 914.01 686.92 957.9 439.98 716.14 439.98 586.1 1171.65 827.86 1171.65 878.25 888.13 1106.69 888.13 1056.31 1171.65 1298.08 1171.65 1356.82 841.24 1500.25 1171.65 1752.47 1171.65 1571.79 786.18 1884.59 440.48"/><g id="logo"><polygon class="cls-2" points="1321.04 41.57 1070.76 41.57 812.18 335.7 864.59 41.07 622.81 41.07 578.89 288.02 350.46 288.02 394.35 41.07 152.59 41.07 22.55 772.74 264.31 772.74 314.71 489.22 543.15 489.22 492.76 772.74 734.53 772.74 793.27 442.33 936.71 772.74 1188.92 772.74 1008.24 387.27 1321.04 41.57"/><polygon class="cls-3" points="1200.4 820.77 18.68 820.77 22.29 805.82 1203.62 805.82 1200.4 820.77"/><polygon class="cls-2" points="19.68 925.54 0 925.54 14.92 855.3 34.6 855.3 19.68 925.54"/><polygon class="cls-2" points="183.93 855.3 197.61 855.3 182.69 925.54 168.03 925.54 150.01 875.43 149.83 875.43 139.18 925.54 125.48 925.54 140.44 855.3 155.86 855.3 173.36 904.19 173.54 904.19 183.93 855.3"/><path class="cls-2" d="M469.11,893.42c-.29-4.21-.86-12.15-13-12.15-7,0-18.39,4.71-22.61,24.52-2.68,12.65-.12,24,12.31,24,8.11,0,14.76-4.56,18.35-13.19h14.67c-6.16,15.28-18.4,25.92-36,25.92-18.68,0-29.41-12.62-24.25-36.88,5.21-24.52,22.07-37,40.17-37,21,0,26.44,14.45,25,24.84Z" transform="translate(-119.67 -15.12)"/><path class="cls-2" d="M615.55,930.05c7.93,0,20.11-4.85,24.28-24.52S633.9,880.95,626,880.95s-20.13,4.92-24.3,24.59S607.6,930.05,615.55,930.05Zm13.07-61.47c9.27,0,32.89,4,25.86,37s-32.26,37-41.57,37-32.89-4-25.88-37S619.32,868.58,628.62,868.58Z" transform="translate(-119.67 -15.12)"/><polygon class="cls-2" points="662.85 925.54 648.14 925.54 660.46 867.73 639.23 867.73 641.87 855.3 698.97 855.3 696.37 867.73 675.12 867.73 662.85 925.54"/><polygon class="cls-2" points="854.52 867.73 817.2 867.73 814.07 882.51 848.33 882.51 845.67 894.87 811.45 894.87 807.6 913.1 846.5 913.1 843.88 925.54 790.56 925.54 805.48 855.3 857.14 855.3 854.52 867.73"/><path class="cls-2" d="M1128.08,893.42c-.25-4.21-.79-12.15-12.94-12.15-7,0-18.41,4.71-22.61,24.52-2.7,12.65-.11,24,12.29,24,8.12,0,14.77-4.56,18.37-13.19h14.67c-6.18,15.28-18.44,25.92-36,25.92-18.69,0-29.41-12.62-24.23-36.88,5.17-24.52,22-37,40.15-37,21,0,26.46,14.45,25,24.84Z" transform="translate(-119.67 -15.12)"/><polygon class="cls-2" points="1142.9 894.01 1136.21 925.54 1121.54 925.54 1136.46 855.3 1151.13 855.3 1145.49 881.9 1172.85 881.9 1178.56 855.3 1193.19 855.3 1178.27 925.54 1163.61 925.54 1170.29 894.01 1142.9 894.01"/><path class="cls-2" d="M171.21,828.41a17.87,17.87,0,1,1-17.88-17.86A17.82,17.82,0,0,1,171.21,828.41Z" transform="translate(-119.67 -15.12)"/><path class="cls-2" d="M1497.79,54.17a27.73,27.73,0,0,0,4.56-.37,10.16,10.16,0,0,0,3.78-1.39,7.53,7.53,0,0,0,2.58-2.82,9.47,9.47,0,0,0,1-4.59,9.25,9.25,0,0,0-2.16-6.31q-2.17-2.48-7-2.49h-17v18Zm-21.12-23.72h24.23q7.28,0,11.46,3.64a12.36,12.36,0,0,1,4.18,9.84,15.67,15.67,0,0,1-2.12,8.22,11,11,0,0,1-6.82,4.84v.14a9.54,9.54,0,0,1,3.65,1.44,8.9,8.9,0,0,1,2.27,2.43,10.22,10.22,0,0,1,1.24,3.13c.23,1.14.42,2.35.56,3.6s.19,2.54.25,3.85.19,2.6.36,3.83a21.23,21.23,0,0,0,.8,3.53,8.72,8.72,0,0,0,1.61,3h-7.64a4.34,4.34,0,0,1-.94-1.94,19.69,19.69,0,0,1-.32-2.6c-.08-1-.12-2.18-.19-3.51s-.19-2.87-.42-4.65c-.21-1.25-.44-2.44-.71-3.57a8.41,8.41,0,0,0-1.39-2.95,6.74,6.74,0,0,0-2.48-2,9.19,9.19,0,0,0-4-.76h-16.73v22h-6.84Z" transform="translate(-119.67 -15.12)"/><path class="cls-2" d="M1496.86,20.55a37.89,37.89,0,1,0,37.89,37.89,37.94,37.94,0,0,0-37.89-37.89Zm0,81.22a43.33,43.33,0,1,1,43.33-43.33,43.38,43.38,0,0,1-43.33,43.33Z" transform="translate(-119.67 -15.12)"/></g><path class="cls-4" d="M1598.81,550.32a29.32,29.32,0,0,1-.31,3.47q-.31,2.33-.79,5t-1,5.23q-.48,2.59-.83,4.35l-10.63,49.31h-14.41l11-52.73q.35-1.49.7-3.34t.66-3.65q.31-1.8.48-3.34a22.72,22.72,0,0,0,.18-2.42q0-6.94-3-10.68t-9.32-3.74a17.36,17.36,0,0,0-6.9,1.54,31.88,31.88,0,0,0-6.94,4.17,48.94,48.94,0,0,0-6.5,6.15,62.48,62.48,0,0,0-5.71,7.51,58.57,58.57,0,0,0-4.44,8.17,42.81,42.81,0,0,0-2.72,8.22l-9.4,44.12h-14.59l11.16-52.73q.35-1.49.7-3.34t.66-3.65q.31-1.8.48-3.34a22.72,22.72,0,0,0,.18-2.42q0-6.94-3.08-10.68t-9.23-3.74a17.86,17.86,0,0,0-7,1.54,31.5,31.5,0,0,0-7,4.22,48.3,48.3,0,0,0-6.55,6.24,65.38,65.38,0,0,0-5.71,7.56,55.26,55.26,0,0,0-4.39,8.17,44.65,44.65,0,0,0-2.68,8.22l-9.4,43.95h-14.59l13.89-64.25q.7-3.43,1.41-7.16t1.32-7.21q.61-3.47,1.05-6.46t.7-4.92h14.06q-.44,3.43-1.05,7.16t-1.05,6.9q-.53,3.69-1.14,7.21h.35a76.08,76.08,0,0,1,6.86-9.4,50.16,50.16,0,0,1,7.82-7.43,36.27,36.27,0,0,1,8.61-4.88,27.12,27.12,0,0,1,19-.09,18,18,0,0,1,6.72,4.7,20.58,20.58,0,0,1,4.09,7.34,36.75,36.75,0,0,1,1.67,9.58,84.89,84.89,0,0,1,7-9.18,49.59,49.59,0,0,1,8-7.38,37.85,37.85,0,0,1,9.05-4.92,28.61,28.61,0,0,1,10.15-1.8q11.25,0,16.88,6.55T1598.81,550.32Z" transform="translate(-119.67 -15.12)"/><path class="cls-4" d="M1689.29,588.82q-.7,3.34-1.36,7.51t-1.14,8.26q-.48,4.09-.79,7.6t-.31,5.45h-14.94q.09-1.76.26-4.22t.48-5.1q.31-2.64.62-5.19t.66-4.39h-.35q-2.73,4.31-5.54,8.13a39.17,39.17,0,0,1-6.24,6.72,27.3,27.3,0,0,1-7.65,4.57,29.38,29.38,0,0,1-20.7-.44,22.56,22.56,0,0,1-8.39-6.28A28.94,28.94,0,0,1,1618.5,601a50.94,50.94,0,0,1-1.89-14.63,73.34,73.34,0,0,1,1.05-11.6,71,71,0,0,1,3.56-13.27,67.55,67.55,0,0,1,6.68-13.23,50.21,50.21,0,0,1,10.37-11.56,49.52,49.52,0,0,1,14.63-8.17,56.84,56.84,0,0,1,19.51-3.08,103.74,103.74,0,0,1,14.5,1.05q7.47,1.05,14.85,2.55Zm-4.13-49.31q-3.08-.7-7.21-1.23a61.29,61.29,0,0,0-7.73-.53,35.08,35.08,0,0,0-13.49,2.42,34.63,34.63,0,0,0-10.15,6.33,37.26,37.26,0,0,0-7.25,9,55.76,55.76,0,0,0-4.7,10.42,61.14,61.14,0,0,0-2.5,10.5,66.43,66.43,0,0,0-.75,9.4,42.09,42.09,0,0,0,.88,9,19.62,19.62,0,0,0,2.77,6.81,13,13,0,0,0,4.83,4.35,14.9,14.9,0,0,0,7,1.54,19,19,0,0,0,8.22-1.8,28.45,28.45,0,0,0,7.16-4.88,40.09,40.09,0,0,0,6.06-7.12,70.08,70.08,0,0,0,4.92-8.57,73.51,73.51,0,0,0,3.74-9.23q1.54-4.7,2.5-9.1Z" transform="translate(-119.67 -15.12)"/><path class="cls-4" d="M1801,550.15a28.64,28.64,0,0,1-.31,3.6q-.31,2.29-.79,4.92t-1,5.23q-.48,2.59-.92,4.44l-10.46,49.31H1773l11-52.73q.35-1.4.7-3.25t.62-3.69q.26-1.85.44-3.38a22.59,22.59,0,0,0,.18-2.42q0-6.68-3.21-10.55t-9.54-3.87a22.18,22.18,0,0,0-11.51,3.43,47.32,47.32,0,0,0-10.55,8.7,59.34,59.34,0,0,0-8.31,11.6,44.44,44.44,0,0,0-4.7,12.22l-9.4,43.95h-14.59L1728,553.4q.7-3.43,1.41-7.16t1.32-7.21q.61-3.47,1.05-6.46t.7-4.92h14.06q-.44,3.43-1.05,7.16t-1.05,6.9q-.53,3.69-1.14,7.21h.35a74.37,74.37,0,0,1,6.81-9.1,51,51,0,0,1,8.09-7.47,38.42,38.42,0,0,1,9.23-5.05,28.69,28.69,0,0,1,10.24-1.85,26.59,26.59,0,0,1,10.28,1.8,19.28,19.28,0,0,1,7.16,5.05,20.62,20.62,0,0,1,4.22,7.82A35,35,0,0,1,1801,550.15Z" transform="translate(-119.67 -15.12)"/><path class="cls-4" d="M1886.78,611.14a114,114,0,0,1-5.8,19.47,51.56,51.56,0,0,1-9.54,15.47,40.63,40.63,0,0,1-14.63,10.2q-8.7,3.65-21.18,3.65a49.72,49.72,0,0,1-15-2,69.15,69.15,0,0,1-11.65-4.83l2.72-13.45a68.07,68.07,0,0,0,11.78,5.63,38.81,38.81,0,0,0,13.45,2.29,36.71,36.71,0,0,0,13.58-2.29,27.3,27.3,0,0,0,9.93-6.72,37.16,37.16,0,0,0,6.94-10.85A82.56,82.56,0,0,0,1872,613l3.08-14.06h-.35a88.26,88.26,0,0,1-6.55,9.27,37.8,37.8,0,0,1-6.72,6.5,26.25,26.25,0,0,1-7.38,3.87,29.12,29.12,0,0,1-19.51-.88,22.32,22.32,0,0,1-8.39-6.37,29.79,29.79,0,0,1-5.36-10.55,51.06,51.06,0,0,1-1.89-14.59,69.34,69.34,0,0,1,1.71-15.38,67.36,67.36,0,0,1,5-14.33,60.27,60.27,0,0,1,8-12.44,52.88,52.88,0,0,1,10.68-9.8,50.36,50.36,0,0,1,13.14-6.46,49.34,49.34,0,0,1,15.34-2.33,127.62,127.62,0,0,1,16.35,1.05q8.17,1.05,15,2.37Zm.7-71.63a69.53,69.53,0,0,0-7.25-1.23,74.22,74.22,0,0,0-9.1-.53,30.51,30.51,0,0,0-15.12,3.82,37.94,37.94,0,0,0-11.82,10.37,50.16,50.16,0,0,0-7.73,15.25,60.22,60.22,0,0,0-2.77,18.37,43.39,43.39,0,0,0,.83,8.79,21.18,21.18,0,0,0,2.64,6.94,13.35,13.35,0,0,0,4.66,4.57,13.63,13.63,0,0,0,7,1.67,19.83,19.83,0,0,0,8.92-2,29.42,29.42,0,0,0,7.51-5.36,41.13,41.13,0,0,0,6.11-7.6,76.76,76.76,0,0,0,4.75-8.75,79.91,79.91,0,0,0,3.47-8.83q1.4-4.35,2.2-7.87Z" transform="translate(-119.67 -15.12)"/><path class="cls-4" d="M2041.9,590q-.62,2.81-1.19,6.77t-1,8q-.44,4-.75,7.51t-.31,5.45h-14.94q0-1.49.22-4t.53-5.23q.31-2.72.66-5.23t.62-4.09h-.35a88.66,88.66,0,0,1-6.33,9,36.63,36.63,0,0,1-6.68,6.5,26.84,26.84,0,0,1-7.47,3.91,27.38,27.38,0,0,1-8.7,1.32,26.9,26.9,0,0,1-11.07-2.2,22.53,22.53,0,0,1-8.39-6.46,29.75,29.75,0,0,1-5.32-10.55,51.4,51.4,0,0,1-1.85-14.46,71.08,71.08,0,0,1,1.36-13.54,69.33,69.33,0,0,1,4.22-13.8A64.57,64.57,0,0,1,1982.4,546a49.13,49.13,0,0,1,24.35-17.89,53.73,53.73,0,0,1,17.49-2.68,59.32,59.32,0,0,1,9.14.66q4.22.66,7.29,1.36l3.25-15.47h-29.18l2.55-11.69h29.09l3.43-15.91h14.24l-3.34,15.91h12L2070.12,512h-11.87Zm-3.78-50.1a56.88,56.88,0,0,0-7-1.54,50.29,50.29,0,0,0-7.78-.57,35.66,35.66,0,0,0-13.49,2.37,34,34,0,0,0-10.2,6.33,37.88,37.88,0,0,0-7.29,9,56.66,56.66,0,0,0-4.75,10.37,59,59,0,0,0-2.55,10.46,65.08,65.08,0,0,0-.75,9.27,44.34,44.34,0,0,0,.83,9,20,20,0,0,0,2.72,6.94,13,13,0,0,0,4.88,4.48,15.22,15.22,0,0,0,7.21,1.58,18.65,18.65,0,0,0,8.22-1.85,28.32,28.32,0,0,0,7.16-5,41.33,41.33,0,0,0,6.06-7.29,70.82,70.82,0,0,0,4.92-8.79,78.2,78.2,0,0,0,3.74-9.45q1.54-4.79,2.5-9.18Z" transform="translate(-119.67 -15.12)"/><path class="cls-4" d="M2146.27,548.74a26.79,26.79,0,0,1-3.16,13q-3.16,5.85-10.46,10t-19.25,6.46a165,165,0,0,1-29.53,2.37,11.2,11.2,0,0,0-.18,2v1.76a29.89,29.89,0,0,0,1.32,9,20.23,20.23,0,0,0,4.09,7.38,19.28,19.28,0,0,0,7.12,5,26.33,26.33,0,0,0,10.33,1.85,43.83,43.83,0,0,0,13.32-2.33,57.19,57.19,0,0,0,13.84-6.64L2131,612.81a57.1,57.1,0,0,1-11.51,4.92,49.5,49.5,0,0,1-14.94,2.11q-9.93,0-16.74-3.08a29.48,29.48,0,0,1-11-8.22,32,32,0,0,1-6-11.87,53.06,53.06,0,0,1-1.85-14.11,65.19,65.19,0,0,1,1.76-15.25,62.06,62.06,0,0,1,5-13.67,57.92,57.92,0,0,1,7.69-11.56,50,50,0,0,1,9.93-8.92,46.06,46.06,0,0,1,11.69-5.71,41.68,41.68,0,0,1,12.92-2,37.34,37.34,0,0,1,12.26,1.85,25.63,25.63,0,0,1,8.88,5.05,21.56,21.56,0,0,1,5.41,7.43A22.12,22.12,0,0,1,2146.27,548.74Zm-14.68.7a10.16,10.16,0,0,0-4.09-8.61q-4.09-3.08-10.85-3.08a24.35,24.35,0,0,0-10.37,2.33,33.56,33.56,0,0,0-9.23,6.42,40,40,0,0,0-7.29,9.76,45.36,45.36,0,0,0-4.48,12.26,151.92,151.92,0,0,0,21.36-1.27,55.38,55.38,0,0,0,14.33-3.74,19.26,19.26,0,0,0,8.09-6A13.48,13.48,0,0,0,2131.59,549.44Zm-.62-38.94-10-13.1-18.72,13.1H2091.6l24.87-21.88h11.69l12.74,21.88Zm6.06-13.27,20.48-21.62h14.77l-24.08,21.62Z" transform="translate(-119.67 -15.12)"/><path class="cls-4" d="M2243.43,550.15a28.64,28.64,0,0,1-.31,3.6q-.31,2.29-.79,4.92t-1,5.23q-.48,2.59-.92,4.44L2230,617.65H2215.4l11-52.73q.35-1.4.7-3.25t.62-3.69q.26-1.85.44-3.38a22.59,22.59,0,0,0,.18-2.42q0-6.68-3.21-10.55t-9.54-3.87a22.18,22.18,0,0,0-11.51,3.43,47.32,47.32,0,0,0-10.55,8.7,59.34,59.34,0,0,0-8.31,11.6,44.44,44.44,0,0,0-4.7,12.22l-9.4,43.95h-14.59l13.89-64.25q.7-3.43,1.41-7.16t1.32-7.21q.61-3.47,1.05-6.46t.7-4.92h14.06q-.44,3.43-1.05,7.16t-1.05,6.9q-.53,3.69-1.14,7.21h.35a74.37,74.37,0,0,1,6.81-9.1,51,51,0,0,1,8.09-7.47,38.42,38.42,0,0,1,9.23-5.05,28.69,28.69,0,0,1,10.24-1.85,26.59,26.59,0,0,1,10.28,1.8,19.28,19.28,0,0,1,7.16,5.05,20.62,20.62,0,0,1,4.22,7.82A35,35,0,0,1,2243.43,550.15Z" transform="translate(-119.67 -15.12)"/><path class="cls-4" d="M2380.45,611.14a114,114,0,0,1-5.8,19.47,51.56,51.56,0,0,1-9.54,15.47,40.63,40.63,0,0,1-14.63,10.2q-8.7,3.65-21.18,3.65a49.72,49.72,0,0,1-15-2,69.15,69.15,0,0,1-11.65-4.83l2.72-13.45a68.07,68.07,0,0,0,11.78,5.63,38.81,38.81,0,0,0,13.45,2.29,36.71,36.71,0,0,0,13.58-2.29,27.3,27.3,0,0,0,9.93-6.72,37.16,37.16,0,0,0,6.94-10.85,82.56,82.56,0,0,0,4.61-14.68l3.08-14.06h-.35a88.26,88.26,0,0,1-6.55,9.27,37.8,37.8,0,0,1-6.72,6.5,26.25,26.25,0,0,1-7.38,3.87,29.12,29.12,0,0,1-19.51-.88,22.32,22.32,0,0,1-8.39-6.37,29.79,29.79,0,0,1-5.36-10.55,51.06,51.06,0,0,1-1.89-14.59,69.34,69.34,0,0,1,1.71-15.38,67.36,67.36,0,0,1,5-14.33,60.27,60.27,0,0,1,8-12.44,52.88,52.88,0,0,1,10.68-9.8,50.36,50.36,0,0,1,13.14-6.46,49.34,49.34,0,0,1,15.34-2.33,127.62,127.62,0,0,1,16.35,1.05q8.17,1.05,15,2.37Zm.7-71.63a69.53,69.53,0,0,0-7.25-1.23,74.22,74.22,0,0,0-9.1-.53,30.51,30.51,0,0,0-15.12,3.82,37.94,37.94,0,0,0-11.82,10.37,50.16,50.16,0,0,0-7.73,15.25,60.22,60.22,0,0,0-2.77,18.37,43.39,43.39,0,0,0,.83,8.79,21.18,21.18,0,0,0,2.64,6.94,13.35,13.35,0,0,0,4.66,4.57,13.63,13.63,0,0,0,7,1.67,19.83,19.83,0,0,0,8.92-2,29.42,29.42,0,0,0,7.51-5.36,41.13,41.13,0,0,0,6.11-7.6,76.76,76.76,0,0,0,4.75-8.75,79.91,79.91,0,0,0,3.47-8.83q1.4-4.35,2.2-7.87Z" transform="translate(-119.67 -15.12)"/><path class="cls-4" d="M2441.67,617.29a33.81,33.81,0,0,1-5,1.14,35,35,0,0,1-5.49.44q-8.88,0-13.27-4.44t-4.39-11.91a36.18,36.18,0,0,1,.44-5.19q.44-3,1.41-7.38l13.1-62.31h14.59l-13.18,62.67q-.79,3.69-1.1,5.71a23.27,23.27,0,0,0-.31,3.43,7.24,7.24,0,0,0,2,5.49q2,1.89,6.28,1.89a26.62,26.62,0,0,0,4-.26,17.74,17.74,0,0,0,3.21-.79Zm10.28-121.73a9.46,9.46,0,0,1-2.68,6.77,8.8,8.8,0,0,1-6.64,2.81,9.34,9.34,0,0,1-6.72-2.77,9.11,9.11,0,0,1-2.86-6.81,8.43,8.43,0,0,1,2.86-6.59,9.77,9.77,0,0,1,6.72-2.55,9.22,9.22,0,0,1,6.59,2.59A8.66,8.66,0,0,1,2451.95,495.57Z" transform="translate(-119.67 -15.12)"/><path class="cls-4" d="M2533,588.82q-.7,3.34-1.36,7.51t-1.14,8.26q-.48,4.09-.79,7.6t-.31,5.45h-14.94q.09-1.76.26-4.22t.48-5.1q.31-2.64.62-5.19t.66-4.39h-.35q-2.72,4.31-5.54,8.13a39.17,39.17,0,0,1-6.24,6.72,27.3,27.3,0,0,1-7.65,4.57,29.38,29.38,0,0,1-20.7-.44,22.56,22.56,0,0,1-8.39-6.28,29,29,0,0,1-5.41-10.46,50.94,50.94,0,0,1-1.89-14.63,73.34,73.34,0,0,1,1.05-11.6,71,71,0,0,1,3.56-13.27,67.57,67.57,0,0,1,6.68-13.23A50.21,50.21,0,0,1,2482,536.7a49.52,49.52,0,0,1,14.63-8.17,56.84,56.84,0,0,1,19.51-3.08,103.73,103.73,0,0,1,14.5,1.05q7.47,1.05,14.85,2.55Zm-4.13-49.31q-3.08-.7-7.21-1.23a61.29,61.29,0,0,0-7.73-.53,35.08,35.08,0,0,0-13.49,2.42,34.63,34.63,0,0,0-10.15,6.33,37.29,37.29,0,0,0-7.25,9,55.79,55.79,0,0,0-4.7,10.42,61.14,61.14,0,0,0-2.5,10.5,66.5,66.5,0,0,0-.75,9.4,42.12,42.12,0,0,0,.88,9,19.62,19.62,0,0,0,2.77,6.81,13,13,0,0,0,4.83,4.35,14.9,14.9,0,0,0,7,1.54,19,19,0,0,0,8.22-1.8,28.45,28.45,0,0,0,7.16-4.88,40,40,0,0,0,6.06-7.12,70,70,0,0,0,4.92-8.57,73.44,73.44,0,0,0,3.74-9.23q1.54-4.7,2.5-9.1Zm-18.19-59.77q1.67-.18,3-.26t3.25-.09a23.15,23.15,0,0,1,6.9.92,14.54,14.54,0,0,1,5,2.59,10.92,10.92,0,0,1,3,3.87,11.44,11.44,0,0,1,1,4.83,12.76,12.76,0,0,1-1.23,5.63,15.06,15.06,0,0,1-3.3,4.48,17.32,17.32,0,0,1-10.24,4.57l-.88,4.39h-9.58l2.11-10.11a16.08,16.08,0,0,0,8.17-1.85,5.73,5.73,0,0,0,3.16-5.19,4.91,4.91,0,0,0-1.54-3.74q-1.54-1.45-5.23-1.45a19,19,0,0,0-2.72.22q-1.5.22-2.81.48Z" transform="translate(-119.67 -15.12)"/><path class="cls-4" d="M2589.41,617.29a33.81,33.81,0,0,1-5,1.14,35,35,0,0,1-5.49.44q-8.88,0-13.27-4.44t-4.39-11.91a36.18,36.18,0,0,1,.44-5.19q.44-3,1.41-7.38l13.1-62.31h14.59l-13.18,62.67q-.79,3.69-1.1,5.71a23.27,23.27,0,0,0-.31,3.43,7.24,7.24,0,0,0,2,5.49q2,1.89,6.28,1.89a26.62,26.62,0,0,0,4-.26,17.74,17.74,0,0,0,3.21-.79Zm10.28-121.73a9.46,9.46,0,0,1-2.68,6.77,8.8,8.8,0,0,1-6.64,2.81,9.34,9.34,0,0,1-6.72-2.77,9.11,9.11,0,0,1-2.86-6.81,8.43,8.43,0,0,1,2.86-6.59,9.77,9.77,0,0,1,6.72-2.55A9.22,9.22,0,0,1,2597,489,8.66,8.66,0,0,1,2599.69,495.57Z" transform="translate(-119.67 -15.12)"/><path class="cls-4" d="M2743.21,559.11a68.42,68.42,0,0,1-1.41,13.49,69.82,69.82,0,0,1-4.31,13.75,67.7,67.7,0,0,1-7.25,12.83A52.06,52.06,0,0,1,2720,609.87a47.49,47.49,0,0,1-13.36,7.29,48.63,48.63,0,0,1-16.52,2.68,54.36,54.36,0,0,1-10.24-1,63,63,0,0,1-8.83-2.29l-9,42.8H2647.5l22-104.06q.61-2.81,1.14-6.77t.92-8q.4-4,.66-7.51t.26-5.45h14.77q0,1.5-.22,4t-.57,5.32q-.35,2.77-.7,5.36t-.62,4.17h.35q6.24-10.63,14.06-15.86a30.07,30.07,0,0,1,17.05-5.23,27.86,27.86,0,0,1,11.07,2.11,21.93,21.93,0,0,1,8.39,6.33,29.28,29.28,0,0,1,5.32,10.55A52.59,52.59,0,0,1,2743.21,559.11Zm-14.77.62a43.47,43.47,0,0,0-.83-8.79,19.54,19.54,0,0,0-2.77-6.94,14,14,0,0,0-5-4.57,15.22,15.22,0,0,0-7.43-1.67,19.81,19.81,0,0,0-8.57,1.89,29.52,29.52,0,0,0-7.43,5.05,41.46,41.46,0,0,0-6.24,7.34,72.68,72.68,0,0,0-5,8.66,75.9,75.9,0,0,0-3.74,9,68,68,0,0,0-2.33,8.48l-5.54,26.1a24.56,24.56,0,0,0,3.78,1.27q2.2.57,4.57,1t4.83.7a43.07,43.07,0,0,0,4.57.26,30.34,30.34,0,0,0,11.21-2,32.5,32.5,0,0,0,9.23-5.49,38.77,38.77,0,0,0,7.21-8.17,54.24,54.24,0,0,0,5.23-10,59,59,0,0,0,3.16-11A60.7,60.7,0,0,0,2728.45,559.73Z" transform="translate(-119.67 -15.12)"/><path class="cls-4" d="M2842.92,550.32a29.22,29.22,0,0,1-.31,3.47q-.31,2.33-.7,5T2841,564q-.48,2.59-.92,4.35l-10.46,49.31h-14.59l11-52.73q.35-1.4.7-3.25t.62-3.69q.26-1.85.44-3.38a22.59,22.59,0,0,0,.18-2.42q0-6.86-3.12-10.63t-9.62-3.78A22.08,22.08,0,0,0,2804,541a45.78,45.78,0,0,0-10.46,8.53,59.29,59.29,0,0,0-8.39,11.69,48.18,48.18,0,0,0-5,12.79l-9.4,43.59h-14.59l28.48-133.24h14.41l-13.71,64.34h.35a72.47,72.47,0,0,1,7.12-9.27,52.2,52.2,0,0,1,8.22-7.38,38.32,38.32,0,0,1,9.14-4.88,28.49,28.49,0,0,1,9.89-1.76q11.25,0,17.05,6.64T2842.92,550.32Z" transform="translate(-119.67 -15.12)"/><path class="cls-4" d="M2933.49,588.82q-.7,3.34-1.36,7.51t-1.14,8.26q-.48,4.09-.79,7.6t-.31,5.45h-14.94q.09-1.76.26-4.22t.48-5.1q.31-2.64.62-5.19t.66-4.39h-.35q-2.72,4.31-5.54,8.13a39.17,39.17,0,0,1-6.24,6.72,27.3,27.3,0,0,1-7.65,4.57,29.38,29.38,0,0,1-20.7-.44,22.56,22.56,0,0,1-8.39-6.28,29,29,0,0,1-5.41-10.46,50.94,50.94,0,0,1-1.89-14.63,73.34,73.34,0,0,1,1.05-11.6,71,71,0,0,1,3.56-13.27,67.57,67.57,0,0,1,6.68-13.23,50.21,50.21,0,0,1,10.37-11.56,49.52,49.52,0,0,1,14.63-8.17,56.84,56.84,0,0,1,19.51-3.08,103.73,103.73,0,0,1,14.5,1.05q7.47,1.05,14.85,2.55Zm-4.13-49.31q-3.08-.7-7.21-1.23a61.29,61.29,0,0,0-7.73-.53,35.08,35.08,0,0,0-13.49,2.42,34.63,34.63,0,0,0-10.15,6.33,37.29,37.29,0,0,0-7.25,9,55.79,55.79,0,0,0-4.7,10.42,61.14,61.14,0,0,0-2.5,10.5,66.5,66.5,0,0,0-.75,9.4,42.12,42.12,0,0,0,.88,9,19.62,19.62,0,0,0,2.77,6.81,13,13,0,0,0,4.83,4.35,14.9,14.9,0,0,0,7,1.54,19,19,0,0,0,8.22-1.8,28.45,28.45,0,0,0,7.16-4.88,40,40,0,0,0,6.06-7.12,70,70,0,0,0,4.92-8.57,73.44,73.44,0,0,0,3.74-9.23q1.54-4.7,2.5-9.1Zm-14-29h-10.81l25.4-28.74h14.15Z" transform="translate(-119.67 -15.12)"/><path class="cls-4" d="M3044,559.11a68.42,68.42,0,0,1-1.41,13.49,69.82,69.82,0,0,1-4.31,13.75,67.7,67.7,0,0,1-7.25,12.83,52.06,52.06,0,0,1-10.24,10.68,47.49,47.49,0,0,1-13.36,7.29,48.63,48.63,0,0,1-16.52,2.68,54.36,54.36,0,0,1-10.24-1,63,63,0,0,1-8.83-2.29l-9,42.8H2948.3l22-104.06q.61-2.81,1.14-6.77t.92-8q.4-4,.66-7.51t.26-5.45H2988q0,1.5-.22,4t-.57,5.32q-.35,2.77-.7,5.36t-.62,4.17h.35q6.24-10.63,14.06-15.86a30.07,30.07,0,0,1,17.05-5.23,27.86,27.86,0,0,1,11.07,2.11,21.93,21.93,0,0,1,8.39,6.33,29.28,29.28,0,0,1,5.32,10.55A52.59,52.59,0,0,1,3044,559.11Zm-14.77.62a43.47,43.47,0,0,0-.83-8.79,19.54,19.54,0,0,0-2.77-6.94,14,14,0,0,0-5-4.57,15.22,15.22,0,0,0-7.43-1.67,19.81,19.81,0,0,0-8.57,1.89,29.52,29.52,0,0,0-7.43,5.05A41.46,41.46,0,0,0,2991,552a72.68,72.68,0,0,0-5,8.66,75.9,75.9,0,0,0-3.74,9,68,68,0,0,0-2.33,8.48l-5.54,26.1a24.56,24.56,0,0,0,3.78,1.27q2.2.57,4.57,1t4.83.7a43.07,43.07,0,0,0,4.57.26,30.34,30.34,0,0,0,11.21-2,32.5,32.5,0,0,0,9.23-5.49,38.77,38.77,0,0,0,7.21-8.17,54.24,54.24,0,0,0,5.23-10,59,59,0,0,0,3.16-11A60.7,60.7,0,0,0,3029.25,559.73Z" transform="translate(-119.67 -15.12)"/><path class="cls-4" d="M3164.59,539.86h-22.68l-10.11,47.72q-.53,2.72-1.05,5.89a32.55,32.55,0,0,0-.53,5.1q0,4.48,2,6.46t6.28,2a13.82,13.82,0,0,0,2.72-.35q1.67-.35,3.43-.88t3.47-1.19l3-1.19-2.72,12.66a42.67,42.67,0,0,1-7,2.24,32.38,32.38,0,0,1-7.43.92,25.15,25.15,0,0,1-8.53-1.27,14.6,14.6,0,0,1-5.76-3.65,14.12,14.12,0,0,1-3.25-5.76,26.53,26.53,0,0,1-1-7.6,42.61,42.61,0,0,1,.48-5.93,61.06,61.06,0,0,1,1.19-6.2l10.37-49h-14.94l2.72-12.22h14.77l4.66-22a27.14,27.14,0,0,1,2.68-.83q2.33-.66,5.1-1.49l5.1-1.54,2.59-.79-5.54,26.63h22.68Z" transform="translate(-119.67 -15.12)"/><path class="cls-4" d="M3253.58,561a74.94,74.94,0,0,1-3.38,22.68,58,58,0,0,1-9.76,18.76A47.14,47.14,0,0,1,3225,615.14a44,44,0,0,1-20.52,4.7,37.49,37.49,0,0,1-13.93-2.46,29,29,0,0,1-10.55-7.08,31.33,31.33,0,0,1-6.68-11.16,44,44,0,0,1-2.33-14.81,73.34,73.34,0,0,1,3.56-23.16,58.5,58.5,0,0,1,10-18.72A46.82,46.82,0,0,1,3200,530a43.71,43.71,0,0,1,19.91-4.53,37.23,37.23,0,0,1,13.84,2.46,29.42,29.42,0,0,1,10.59,7.08,32.06,32.06,0,0,1,6.81,11.16A42.56,42.56,0,0,1,3253.58,561Zm-14.77.7a33.63,33.63,0,0,0-1.41-10.15,21.6,21.6,0,0,0-4-7.47,17.18,17.18,0,0,0-6.15-4.66,19.45,19.45,0,0,0-8.09-1.63,25.56,25.56,0,0,0-14,4,35.34,35.34,0,0,0-10.55,10.42,51.62,51.62,0,0,0-6.64,14.68,61.43,61.43,0,0,0-2.33,16.83,33.58,33.58,0,0,0,1.36,9.89,22.44,22.44,0,0,0,3.87,7.56,16.69,16.69,0,0,0,6.15,4.79,19.52,19.52,0,0,0,8.22,1.67,25.93,25.93,0,0,0,14.06-3.91,34.86,34.86,0,0,0,10.55-10.37,50.74,50.74,0,0,0,6.59-14.72A63,63,0,0,0,3238.82,561.66Z" transform="translate(-119.67 -15.12)"/><path class="cls-4" d="M3342,588.82q-.7,3.34-1.36,7.51t-1.14,8.26q-.48,4.09-.79,7.6t-.31,5.45h-14.94q.09-1.76.26-4.22t.48-5.1q.31-2.64.62-5.19t.66-4.39h-.35q-2.72,4.31-5.54,8.13a39.17,39.17,0,0,1-6.24,6.72,27.3,27.3,0,0,1-7.65,4.57,29.38,29.38,0,0,1-20.7-.44,22.56,22.56,0,0,1-8.39-6.28,29,29,0,0,1-5.41-10.46,50.94,50.94,0,0,1-1.89-14.63,73.34,73.34,0,0,1,1.05-11.6,71,71,0,0,1,3.56-13.27,67.57,67.57,0,0,1,6.68-13.23,50.21,50.21,0,0,1,10.37-11.56,49.52,49.52,0,0,1,14.63-8.17,56.84,56.84,0,0,1,19.51-3.08,103.73,103.73,0,0,1,14.5,1.05q7.47,1.05,14.85,2.55Zm-4.13-49.31q-3.08-.7-7.21-1.23a61.29,61.29,0,0,0-7.73-.53,35.08,35.08,0,0,0-13.49,2.42,34.63,34.63,0,0,0-10.15,6.33,37.29,37.29,0,0,0-7.25,9,55.79,55.79,0,0,0-4.7,10.42,61.14,61.14,0,0,0-2.5,10.5,66.5,66.5,0,0,0-.75,9.4,42.12,42.12,0,0,0,.88,9,19.62,19.62,0,0,0,2.77,6.81,13,13,0,0,0,4.83,4.35,14.9,14.9,0,0,0,7,1.54,19,19,0,0,0,8.22-1.8,28.45,28.45,0,0,0,7.16-4.88,40,40,0,0,0,6.06-7.12,70,70,0,0,0,4.92-8.57,73.44,73.44,0,0,0,3.74-9.23q1.54-4.7,2.5-9.1Zm-7.38-29-21-28.74h13.45l18.19,28.74Z" transform="translate(-119.67 -15.12)"/><path class="cls-4" d="M3453.71,550.15a28.64,28.64,0,0,1-.31,3.6q-.31,2.29-.79,4.92t-1,5.23q-.48,2.59-.92,4.44l-10.46,49.31h-14.59l11-52.73q.35-1.4.7-3.25T3438,558q.26-1.85.44-3.38a22.59,22.59,0,0,0,.18-2.42q0-6.68-3.21-10.55t-9.54-3.87a22.18,22.18,0,0,0-11.51,3.43,47.32,47.32,0,0,0-10.55,8.7,59.34,59.34,0,0,0-8.31,11.6,44.44,44.44,0,0,0-4.7,12.22l-9.4,43.95h-14.59l13.89-64.25q.7-3.43,1.41-7.16t1.32-7.21q.61-3.47,1.05-6.46t.7-4.92h14.06q-.44,3.43-1.05,7.16t-1.05,6.9q-.53,3.69-1.14,7.21h.35a74.37,74.37,0,0,1,6.81-9.1,51,51,0,0,1,8.09-7.47,38.42,38.42,0,0,1,9.23-5.05,28.69,28.69,0,0,1,10.24-1.85,26.59,26.59,0,0,1,10.28,1.8,19.28,19.28,0,0,1,7.16,5.05,20.62,20.62,0,0,1,4.22,7.82A35,35,0,0,1,3453.71,550.15Z" transform="translate(-119.67 -15.12)"/><path class="cls-4" d="M3595.21,590q-.62,2.81-1.19,6.77t-1,8q-.44,4-.75,7.51t-.31,5.45H3577q0-1.49.22-4t.53-5.23q.31-2.72.66-5.23t.62-4.09h-.35a88.66,88.66,0,0,1-6.33,9,36.63,36.63,0,0,1-6.68,6.5,26.84,26.84,0,0,1-7.47,3.91,27.38,27.38,0,0,1-8.7,1.32,26.9,26.9,0,0,1-11.07-2.2,22.53,22.53,0,0,1-8.39-6.46,29.75,29.75,0,0,1-5.32-10.55,51.4,51.4,0,0,1-1.85-14.46,71.08,71.08,0,0,1,1.36-13.54,69.33,69.33,0,0,1,4.22-13.8A64.57,64.57,0,0,1,3535.7,546,49.13,49.13,0,0,1,3560,528.13a53.73,53.73,0,0,1,17.49-2.68,59.32,59.32,0,0,1,9.14.66q4.22.66,7.29,1.36l9.14-43.07h14.24Zm-3.78-50.1a56.88,56.88,0,0,0-7-1.54,50.29,50.29,0,0,0-7.78-.57,35.66,35.66,0,0,0-13.49,2.37,34,34,0,0,0-10.2,6.33,37.88,37.88,0,0,0-7.29,9,56.66,56.66,0,0,0-4.75,10.37,59,59,0,0,0-2.55,10.46,65.08,65.08,0,0,0-.75,9.27,44.34,44.34,0,0,0,.83,9,20,20,0,0,0,2.72,6.94,13,13,0,0,0,4.88,4.48,15.22,15.22,0,0,0,7.21,1.58,18.65,18.65,0,0,0,8.22-1.85,28.32,28.32,0,0,0,7.16-5,41.33,41.33,0,0,0,6.06-7.29,70.82,70.82,0,0,0,4.92-8.79,78.2,78.2,0,0,0,3.74-9.45q1.54-4.79,2.5-9.18Z" transform="translate(-119.67 -15.12)"/><path class="cls-4" d="M3651.94,617.29a33.81,33.81,0,0,1-5,1.14,35,35,0,0,1-5.49.44q-8.88,0-13.27-4.44t-4.39-11.91a36.18,36.18,0,0,1,.44-5.19q.44-3,1.41-7.38l13.1-62.31h14.59l-13.18,62.67q-.79,3.69-1.1,5.71a23.27,23.27,0,0,0-.31,3.43,7.24,7.24,0,0,0,2,5.49q2,1.89,6.28,1.89a26.62,26.62,0,0,0,4-.26,17.74,17.74,0,0,0,3.21-.79Zm10.28-121.73a9.46,9.46,0,0,1-2.68,6.77,8.8,8.8,0,0,1-6.64,2.81,9.34,9.34,0,0,1-6.72-2.77,9.11,9.11,0,0,1-2.86-6.81,8.43,8.43,0,0,1,2.86-6.59,9.77,9.77,0,0,1,6.72-2.55,9.22,9.22,0,0,1,6.59,2.59A8.66,8.66,0,0,1,3662.22,495.57Z" transform="translate(-119.67 -15.12)"/><path class="cls-4" d="M3748,548.74a26.79,26.79,0,0,1-3.16,13q-3.16,5.85-10.46,10t-19.25,6.46a165,165,0,0,1-29.53,2.37,11.2,11.2,0,0,0-.18,2v1.76a29.89,29.89,0,0,0,1.32,9,20.23,20.23,0,0,0,4.09,7.38,19.28,19.28,0,0,0,7.12,5,26.33,26.33,0,0,0,10.33,1.85,43.83,43.83,0,0,0,13.32-2.33,57.19,57.19,0,0,0,13.84-6.64l-2.72,14.24a57.1,57.1,0,0,1-11.51,4.92,49.5,49.5,0,0,1-14.94,2.11q-9.93,0-16.74-3.08a29.48,29.48,0,0,1-11-8.22,32,32,0,0,1-6-11.87,53.06,53.06,0,0,1-1.85-14.11,65.19,65.19,0,0,1,1.76-15.25,62.06,62.06,0,0,1,5-13.67A57.92,57.92,0,0,1,3685,542.1a50,50,0,0,1,9.93-8.92,46.06,46.06,0,0,1,11.69-5.71,41.68,41.68,0,0,1,12.92-2,37.34,37.34,0,0,1,12.26,1.85,25.63,25.63,0,0,1,8.88,5.05,21.56,21.56,0,0,1,5.41,7.43A22.12,22.12,0,0,1,3748,548.74Zm-14.68.7a10.16,10.16,0,0,0-4.09-8.61q-4.09-3.08-10.85-3.08a24.35,24.35,0,0,0-10.37,2.33,33.56,33.56,0,0,0-9.23,6.42,40,40,0,0,0-7.29,9.76,45.36,45.36,0,0,0-4.48,12.26,151.92,151.92,0,0,0,21.36-1.27,55.38,55.38,0,0,0,14.33-3.74,19.26,19.26,0,0,0,8.09-6A13.48,13.48,0,0,0,3733.28,549.44Zm-30.15,95.8a8.7,8.7,0,0,1-8.7-8.7,7.83,7.83,0,0,1,2.64-6,8.71,8.71,0,0,1,6.06-2.42,8.62,8.62,0,0,1,6.15,2.42,8,8,0,0,1,2.55,6,8.7,8.7,0,0,1-8.7,8.7Zm32.7-134.74-10-20.3-18.72,20.3h-10.63l24.87-29.09H3733l12.74,29.09Z" transform="translate(-119.67 -15.12)"/><path class="cls-4" d="M3845.12,550.15a28.64,28.64,0,0,1-.31,3.6q-.31,2.29-.79,4.92t-1,5.23q-.48,2.59-.92,4.44l-10.46,49.31h-14.59l11-52.73q.35-1.4.7-3.25t.62-3.69q.26-1.85.44-3.38a22.59,22.59,0,0,0,.18-2.42q0-6.68-3.21-10.55t-9.54-3.87a22.18,22.18,0,0,0-11.51,3.43,47.32,47.32,0,0,0-10.55,8.7,59.34,59.34,0,0,0-8.31,11.6,44.44,44.44,0,0,0-4.7,12.22l-9.4,43.95h-14.59l13.89-64.25q.7-3.43,1.41-7.16t1.32-7.21q.61-3.47,1.05-6.46t.7-4.92h14.06q-.44,3.43-1.05,7.16t-1.05,6.9q-.53,3.69-1.14,7.21h.35a74.37,74.37,0,0,1,6.81-9.1,51,51,0,0,1,8.09-7.47,38.42,38.42,0,0,1,9.23-5.05,28.69,28.69,0,0,1,10.24-1.85,26.59,26.59,0,0,1,10.28,1.8,19.28,19.28,0,0,1,7.16,5.05,20.62,20.62,0,0,1,4.22,7.82A35,35,0,0,1,3845.12,550.15Z" transform="translate(-119.67 -15.12)"/><path class="cls-5" d="M1602.45,422h-30.27l15.75-74.83h-80.69L1491.49,422H1461l37.11-175h30.52l-15.75,73.36h80.81L1609.41,247h30.27Z" transform="translate(-119.67 -15.12)"/><path class="cls-5" d="M1870.47,318.63a119.66,119.66,0,0,1-12,53q-12,24.72-33.26,39.06t-50.42,14.34q-21.36,0-37.78-9.4a64.08,64.08,0,0,1-25.39-26.61q-9-17.21-9-38.94a121.85,121.85,0,0,1,7.2-42.48,101.92,101.92,0,0,1,20.93-34.36,89.15,89.15,0,0,1,30.76-22,94.47,94.47,0,0,1,37.17-7.2q21.12,0,37.54,9.22a62.8,62.8,0,0,1,25.33,26.25Q1870.47,296.54,1870.47,318.63Zm-31.74,1.1q0-22.71-11.66-35.95t-31.56-13.24q-16.6,0-30.94,10.44t-22.34,29.36a100.91,100.91,0,0,0-8,39.67q0,22.34,11.41,35.58t31.56,13.24a51.84,51.84,0,0,0,31.43-10.25q14-10.25,22-29.42A100.81,100.81,0,0,0,1838.73,319.73Z" transform="translate(-119.67 -15.12)"/><path class="cls-5" d="M2046,422l-6.47-43.95H1971L1946.59,422h-34.3l102.54-175h34.3l27.71,175Zm-18.68-140.26v-4.27l.24-4.27h-.61a84.44,84.44,0,0,1-5.74,13.43l-37.6,67h52.73l-8.54-65.92A28.79,28.79,0,0,1,2027.28,281.77Zm8.54-50.9-30.4-39.79h25.39l25.39,39.79Z" transform="translate(-119.67 -15.12)"/><path class="cls-5" d="M2300.55,422h-29.3l-59.69-125.73q-.73-1.58-2.5-6.1a41.85,41.85,0,0,1-2.14-6.47h-.73l-1.1,8.3-1.46,8.91L2177.87,422h-28.69l37-175H2218L2276.5,372.1a89.14,89.14,0,0,1,4,10.25h.49a114.42,114.42,0,0,1,2.32-16.24L2308.73,247h28.93Z" transform="translate(-119.67 -15.12)"/><path class="cls-5" d="M2551.48,283.48a75.61,75.61,0,0,0-21.67-9.95,92.16,92.16,0,0,0-26.18-3.72q-21.24,0-37.54,9.46a63.94,63.94,0,0,0-25.15,26.67q-8.85,17.21-8.85,39.43,0,25.15,13.49,39.67t36.8,14.53a70.91,70.91,0,0,0,24.54-4.15l9-43.21h-38.09l5.37-24.9h68.24L2533.41,412a116.5,116.5,0,0,1-54.93,13.18q-23.44,0-41.2-9.7A66.08,66.08,0,0,1,2410.06,388q-9.46-17.76-9.46-40.59,0-29.91,12.94-53.71A89.88,89.88,0,0,1,2450.22,257Q2474,244,2505.82,244a130.56,130.56,0,0,1,51.51,10.74Z" transform="translate(-119.67 -15.12)"/><path class="cls-5" d="M2902.94,247l-87,86.06L2870,422h-36.74L2790.64,347a62.08,62.08,0,0,1-5-10.86h-.49L2766.59,422h-30.4l37.11-175h30.52l-17.33,81.79h.49l5.86-6.84L2865,247Z" transform="translate(-119.67 -15.12)"/><path class="cls-5" d="M3083.92,422h-30.27l15.75-74.83h-80.69L2973,422h-30.52l37.11-175h30.52l-15.75,73.36h80.81L3090.88,247h30.27Z" transform="translate(-119.67 -15.12)"/><path class="cls-5" d="M3290.05,422l-6.47-43.95H3215.1L3190.69,422h-34.3l102.54-175h34.3l27.71,175Zm-18.68-140.26v-4.27l.24-4.27H3271a84.44,84.44,0,0,1-5.74,13.43l-37.6,67h52.73l-8.54-65.92A28.79,28.79,0,0,1,3271.38,281.77Z" transform="translate(-119.67 -15.12)"/><path class="cls-5" d="M3544.64,422h-29.3l-59.69-125.73q-.73-1.58-2.5-6.1a41.85,41.85,0,0,1-2.14-6.47h-.73l-1.1,8.3-1.46,8.91L3422,422h-28.69l37-175h31.86l58.47,125.12a89.14,89.14,0,0,1,4,10.25h.49a114.42,114.42,0,0,1,2.32-16.24L3552.82,247h28.93Z" transform="translate(-119.67 -15.12)"/><path class="cls-5" d="M3795.57,283.48a75.61,75.61,0,0,0-21.67-9.95,92.16,92.16,0,0,0-26.18-3.72q-21.24,0-37.54,9.46A63.94,63.94,0,0,0,3685,305.94q-8.85,17.21-8.85,39.43,0,25.15,13.49,39.67t36.8,14.53a70.91,70.91,0,0,0,24.54-4.15l9-43.21H3722l5.37-24.9h68.24L3777.5,412a116.5,116.5,0,0,1-54.93,13.18q-23.44,0-41.2-9.7A66.08,66.08,0,0,1,3654.15,388q-9.46-17.76-9.46-40.59,0-29.91,12.94-53.71A89.88,89.88,0,0,1,3694.31,257q23.74-12.94,55.6-12.94a130.56,130.56,0,0,1,51.51,10.74Z" transform="translate(-119.67 -15.12)"/></svg>